<svg xmlns="http://www.w3.org/2000/svg" xmlns:xlink="http://www.w3.org/1999/xlink" viewBox="0 0 763.3 846.77"><defs><style>.cls-1{fill:none;}.cls-2{fill:#fff;}.cls-3{clip-path:url(#clip-path);}.cls-4{clip-path:url(#clip-path-2);}</style><clipPath id="clip-path" transform="translate(-614.15)"><path class="cls-1" d="M1227.76,89.7C1109.69,3.92,984.26-10.69,936,55.73l-57.68,79.38c-46.05,63.39,9.34,182.15,123.72,265.25s244.44,99.09,290.49,35.7l57.68-79.39C1398.48,290.26,1345.82,175.48,1227.76,89.7ZM1274.11,334c-21-47.59-63.15-98.28-121.59-140.74s-119.68-66.91-171.42-72.14c-.75-10.77,1.24-20.27,6.68-27.77,14.41-19.83,48.71-22,91-9.4,34,10.12,73.11,29.79,111.31,57.54m-190,30.86c36.64,8.44,80.18,27.8,124.16,59.75s75.84,67.37,95.19,99.62c-36.58-8.74-80.59-29.68-123.41-60.79S1019.76,204.42,1000.15,172.34ZM904.31,925.17,533.73,655.93,892.17,162.58l370.58,269.24Z"/></clipPath><clipPath id="clip-path-2" transform="translate(-614.15)"><path class="cls-1" d="M821.22,649.87c-118.06-85.78-243.5-100.38-291.75-34l-57.68,79.39c-46.05,63.38,9.34,182.14,123.72,265.25S840,1059.62,886,996.23l57.68-79.39C991.94,850.43,939.29,735.65,821.22,649.87Zm46.36,244.29c-21-47.59-63.16-98.28-121.59-140.73s-119.68-66.92-171.42-72.15c-.76-10.77,1.24-20.27,6.68-27.76,14.41-19.83,48.71-22,91-9.41,34,10.12,73.12,29.79,111.31,57.54m-190,30.86c36.65,8.44,80.18,27.8,124.16,59.75s75.84,67.38,95.2,99.62c-36.58-8.74-80.59-29.68-123.41-60.79S613.23,764.6,593.61,732.51Zm-223,927.9L0,1391.16,485.63,722.75,856.21,992Z"/></clipPath></defs><title>Resurs 5</title><g id="Lager_2" data-name="Lager 2"><g id="head"><path class="cls-2" d="M1237.16,75.51c-118.07-85.78-243.5-100.39-291.75-34l-57.68,79.39c-46.05,63.39,9.34,182.15,123.72,265.25s244.44,99.09,290.5,35.7l57.68-79.39C1407.88,276.07,1355.23,161.29,1237.16,75.51Zm-37.62,51.78c85.79,62.32,134.28,141.83,108.31,177.57-5.44,7.49-13.86,12.33-24.34,14.94-21-47.6-63.15-98.28-121.59-140.74s-119.67-66.91-171.42-72.14c-.75-10.77,1.24-20.28,6.69-27.77C1023.15,43.41,1113.75,65,1199.54,127.29Zm-190,30.85c36.64,8.45,80.18,27.8,124.16,59.76s75.84,67.37,95.19,99.62c-36.58-8.74-80.58-29.68-123.41-60.79S1029.16,190.23,1009.55,158.14Z" transform="translate(-614.15)"/></g><g id="temp"><g class="cls-3"><path class="cls-2" d="M690.48,247.31h409.36a12.9,12.9,0,0,1,12.9,12.9V667.55A180.12,180.12,0,0,1,932.62,847.66H857.69A180.12,180.12,0,0,1,677.58,667.55V260.21a12.9,12.9,0,0,1,12.9-12.9Z" transform="translate(-121.39 -421.6) rotate(36)"/></g></g></g></svg>